<svg xmlns="http://www.w3.org/2000/svg" xmlns:xlink="http://www.w3.org/1999/xlink" width="100" height="100" viewBox="0 0 100 100">
  <defs>
    <clipPath id="clip-path">
      <circle id="椭圆_28" data-name="椭圆 28" cx="50" cy="50" r="50" transform="translate(2458 5030)" fill="#fff" stroke="#707070" stroke-width="1"/>
    </clipPath>
  </defs>
  <g id="蒙版组_9" data-name="蒙版组 9" transform="translate(-2458 -5030)" clip-path="url(#clip-path)">
    <g id="country-english" transform="translate(2458 5030)">
      <rect id="矩形_101" data-name="矩形 101" width="100" height="100" fill="#4758a9"/>
      <path id="路径_165" data-name="路径 165" d="M99.85,7.059,61.812,34.114V0H38.038V34.114L0,7.059V21.782L22.861,38.038H0V61.812H22.861L0,78.067V92.79L38.038,65.741V99.85H61.812V65.741L99.85,92.79V78.067L76.994,61.812H99.85V38.038H76.994L99.85,21.782Z" fill="#fff" fill-rule="evenodd"/>
      <path id="路径_166" data-name="路径 166" d="M26.315,38.038,0,19.316V9.511L38.038,36.56v1.5ZM38.038,61.812H26.315L0,80.534v9.83L38.038,63.315ZM61.812,36.56v1.5H73.534L99.85,19.316V9.511Zm0,25.252v1.5L99.85,90.364v-9.83L73.534,61.812ZM99.85,42.791H57.059V0H42.791V42.791H0V57.059H42.791V99.85H57.059V57.059H99.85Z" fill="#ed5565" fill-rule="evenodd"/>
    </g>
  </g>
</svg>
