<svg xmlns="http://www.w3.org/2000/svg" xmlns:xlink="http://www.w3.org/1999/xlink" width="200" height="200" viewBox="0 0 200 200">
  <defs>
    <clipPath id="clip-path">
      <circle id="椭圆_37" data-name="椭圆 37" cx="100" cy="100" r="100" transform="translate(2349 4968)" fill="#fff" stroke="#707070" stroke-width="1"/>
    </clipPath>
  </defs>
  <g id="蒙版组_13" data-name="蒙版组 13" transform="translate(-2349 -4968)" clip-path="url(#clip-path)">
    <g id="hongkong" transform="translate(2349 4968)">
      <rect id="矩形_113" data-name="矩形 113" width="200" height="200" fill="#ed5565"/>
      <path id="路径_173" data-name="路径 173" d="M91.87,100.9S73.18,95.68,73.18,70c0-25,29.91-32.22,37.38-32.22-13.09,11.12-3.74,16.88-3.74,28.51C106.82,81.08,79.59,81.14,91.87,100.9Zm4.63-3.85s-.77-19.3,23.81-27.25c23.94-7.73,40.09,18.3,42.4,25.44-14.68-8.95-17.3,1.64-28.41,5.24C120,105.07,111.6,79.32,96.5,97.05Zm5.1,3.19s18.2-6.7,33.43,14.14c14.77,20.24-5.16,43.55-11.21,47.92,4-16.67-6.95-15.85-13.82-25.25-8.76-12.05,13.24-28.05-8.4-36.81Zm-1.47,5.83s12,15.16-3.19,36c-14.77,20.24-43.22,8.58-49.27,4.21,17.13-1.35,13-11.46,19.87-20.87,8.81-12.05,30.86,3.83,32.59-19.34Zm-6-.12S83.4,122,58.72,114.06c-23.88-7.73-21.55-38.25-19.24-45.32,6.59,15.78,15,8.75,26.09,12.34,14.23,4.6,5.87,30.38,28.58,24.87Z" fill="#fff" fill-rule="evenodd"/>
    </g>
  </g>
</svg>
