<svg xmlns="http://www.w3.org/2000/svg" xmlns:xlink="http://www.w3.org/1999/xlink" width="200" height="200" viewBox="0 0 200 200">
  <defs>
    <clipPath id="clip-path">
      <circle id="椭圆_1" data-name="椭圆 1" cx="100" cy="100" r="100" transform="translate(910 488)" fill="#fff" stroke="#707070" stroke-width="1"/>
    </clipPath>
  </defs>
  <g id="蒙版组_1" data-name="蒙版组 1" transform="translate(-910 -488)" clip-path="url(#clip-path)">
    <g id="india" transform="translate(910 488)">
      <rect id="矩形_1" data-name="矩形 1" width="200" height="68" transform="translate(0 66)" fill="#fff"/>
      <rect id="矩形_2" data-name="矩形 2" width="200" height="66" fill="#ffe35a"/>
      <rect id="矩形_3" data-name="矩形 3" width="200" height="66" transform="translate(0 134)" fill="#52c162"/>
      <path id="路径_1" data-name="路径 1" d="M100,87.84l6.3-11.34-.22,13,11.12-6.7-6.67,11.12,13-.22L112.16,100l11.34,6.3-13-.22,6.67,11.12-11.12-6.67.22,13L100,112.16,93.7,123.5l.22-13L82.8,117.2l6.67-11.12-13,.22L87.84,100,76.5,93.7l13,.22L82.8,82.8l11.12,6.67-.22-13ZM100,74a26,26,0,1,0,26,26,26,26,0,0,0-26-26m0-3a29,29,0,1,1-29,29,29,29,0,0,1,29-29Z" fill="#4758a9"/>
    </g>
  </g>
</svg>
