<svg xmlns="http://www.w3.org/2000/svg" xmlns:xlink="http://www.w3.org/1999/xlink" width="100" height="100" viewBox="0 0 100 100">
  <defs>
    <clipPath id="clip-path">
      <circle id="椭圆_30" data-name="椭圆 30" cx="50" cy="50" r="50" transform="translate(2329 5018)" fill="#fff" stroke="#707070" stroke-width="1"/>
    </clipPath>
  </defs>
  <g id="蒙版组_7" data-name="蒙版组 7" transform="translate(-2329 -5018)" clip-path="url(#clip-path)">
    <g id="country-korea" transform="translate(2329 5018.183)">
      <rect id="矩形_105" data-name="矩形 105" width="100" height="100" transform="translate(0 -0.183)" fill="#fff"/>
      <path id="路径_168" data-name="路径 168" d="M77.872,42.339l2.78-1.854,5.125,7.69L83,50.029ZM88.743,59.372l2.77-1.834-5.08-7.68L83.664,51.7ZM93.3,56.286l2.78-1.854L84.9,37.65,82.121,39.5ZM91.428,44.458,94.2,42.6l-5.13-7.695L86.3,36.764ZM97.144,53.8l2.77-1.823-5.07-7.685-2.77,1.839ZM35.937,94.554l2.78-1.854L27.536,75.923l-2.78,1.854ZM25.713,88.242l2.775-1.854-5.15-7.69-2.775,1.854Zm6.1,9.1,2.78-1.854-5.15-7.69-2.78,1.854ZM27.6,100.13l2.78-1.849L19.2,81.529l-2.78,1.849Zm0-40.988L38.738,42.374l-2.78-1.854L24.776,57.288Zm-4.2-2.83L34.54,39.544,31.764,37.69,20.573,54.477Zm-4.233-2.835,11.2-16.737L27.586,34.88,16.39,51.642ZM80.7,94.554l5.13-7.71-2.78-1.854-5.13,7.69Zm5.6-9.263,5.085-7.675-2.775-1.833-5.085,7.65Zm.962,2.5-5.13,7.69,2.745,1.849L90,89.645Zm3.141.266,5.085-7.675-2.77-1.864-5.085,7.685ZM88.573,99.9l5.085-7.67-2.77-1.839-5.06,7.67ZM92.33,89.164l2.8,1.909,5.13-7.69-2.805-1.909Z" transform="translate(-8.179 -17.407)" fill="#434a54"/>
      <path id="路径_169" data-name="路径 169" d="M63.249,77.62A10.064,10.064,0,1,0,80.006,88.771,10.064,10.064,0,1,1,96.763,99.923,20.127,20.127,0,1,1,63.127,77.809h0Z" transform="translate(-29.851 -38.736)" fill="#4758a9"/>
      <path id="路径_170" data-name="路径 170" d="M92.959,63.158A20.123,20.123,0,0,0,65.05,68.669l-.05.07A10.068,10.068,0,1,0,81.749,79.917,10.064,10.064,0,1,1,98.505,91.067a20.083,20.083,0,0,0-5.486-27.849Z" transform="translate(-31.591 -29.82)" fill="#ed5565"/>
    </g>
  </g>
</svg>
