<svg xmlns="http://www.w3.org/2000/svg" xmlns:xlink="http://www.w3.org/1999/xlink" width="200" height="200" viewBox="0 0 200 200">
  <defs>
    <clipPath id="clip-path">
      <circle id="椭圆_1" data-name="椭圆 1" cx="100" cy="100" r="100" transform="translate(860 440)" fill="#fff" stroke="#707070" stroke-width="1"/>
    </clipPath>
  </defs>
  <g id="蒙版组_1" data-name="蒙版组 1" transform="translate(-860 -440)" clip-path="url(#clip-path)">
    <g id="组_1" data-name="组 1" transform="translate(860 440)">
      <rect id="矩形_1" data-name="矩形 1" width="200" height="100" fill="#ed5565"/>
      <rect id="矩形_2" data-name="矩形 2" width="200" height="100" transform="translate(0 100)" fill="#52c162"/>
      <path id="路径_1" data-name="路径 1" d="M100,77.57l11.61-20.9-.39,23.9,20.5-12.29-12.29,20.5,23.9-.39L122.43,100l20.9,11.61-23.9-.39,12.29,20.5-20.5-12.29.39,23.9L100,122.43l-11.61,20.9.39-23.9-20.5,12.29,12.29-20.5-23.9.39L77.57,100,56.67,88.39l23.9.39L68.28,68.28l20.5,12.29-.39-23.9Z" fill="#ffe35a"/>
      <path id="路径_2" data-name="路径 2" d="M3581.17,1037a52.66,52.66,0,0,0,54.07,0l-21.93-40.74a6.86,6.86,0,1,0-11.78-6.16,48.714,48.714,0,0,1-16.24-2.49,60,60,0,0,0-24.719-2.27l-8-17.76-8,17.76a60,60,0,0,0-24.71,2.27,48.71,48.71,0,0,1-16.24,2.49,6.87,6.87,0,1,0-11.79,6.16L3469.91,1037a52.661,52.661,0,0,0,54.07,0l-21.93-40.74a7.043,7.043,0,0,0,1-1.55h1.52A53.572,53.572,0,0,0,3521.3,992a55.07,55.07,0,0,1,21.27-2.2l-.08.18,4.78,9.91v37.61l-6.66,16.24-37.1,5.64-1,4.28h100.18l-1-4.28-37.1-5.64-6.67-16.24V999.9l4.79-9.91-.08-.18a55.072,55.072,0,0,1,21.271,2.2,53.56,53.56,0,0,0,16.669,2.73h1.53a7.052,7.052,0,0,0,1,1.55Zm-87.47-39.28a6.721,6.721,0,0,0,2.13.73V1037h-23.27Zm4.35,39.28V998.46a6.78,6.78,0,0,0,2.14-.73l21.14,39.28ZM3605,997.73a6.814,6.814,0,0,0,2.13.73V1037h-23.27Zm4.36,39.28V998.46a6.812,6.812,0,0,0,2.13-.73l21.14,39.28Z" transform="translate(-3452.57 -915.63)" fill="#434a54"/>
    </g>
  </g>
</svg>
