<svg xmlns="http://www.w3.org/2000/svg" xmlns:xlink="http://www.w3.org/1999/xlink" width="100" height="100" viewBox="0 0 100 100">
  <defs>
    <clipPath id="clip-path">
      <circle id="椭圆_33" data-name="椭圆 33" cx="50" cy="50" r="50" transform="translate(2449 5097)" fill="#fff" stroke="#707070" stroke-width="1"/>
    </clipPath>
  </defs>
  <g id="蒙版组_8" data-name="蒙版组 8" transform="translate(-2449 -5097)" clip-path="url(#clip-path)">
    <g id="组_42" data-name="组 42" transform="translate(2449 5097)">
      <rect id="矩形_112" data-name="矩形 112" width="100" height="100" fill="#fff"/>
      <path id="路径_171" data-name="路径 171" d="M2519.924,1231h51.917v12.542h-51.917Zm0,35.116h51.917v-12.541h-51.917ZM2472,1288.691h99.841V1276.15H2472Zm0,22.575h99.841v-12.542H2472Z" transform="translate(-2472 -1220.967)" fill="#ed5565"/>
      <path id="路径_172" data-name="路径 172" d="M2520.16,1256.15H2472V1211h48.16Zm-19.212-34.364.108,6.5-5.579-3.345,3.345,5.579-6.5-.108,5.687,3.159-5.687,3.159,6.5-.108-3.345,5.579,5.579-3.345-.108,6.5,3.159-5.687,3.159,5.687-.108-6.5,5.579,3.345-3.345-5.579,6.5.108-5.687-3.159,5.687-3.159-6.5.108,3.345-5.579-5.579,3.345.108-6.5-3.159,5.687Zm-5.519,26.321a14.532,14.532,0,1,1,5.166-28.115,16.164,16.164,0,1,0,0,27.166A14.5,14.5,0,0,1,2495.429,1248.107Z" transform="translate(-2472 -1211)" fill="#4758a9"/>
    </g>
  </g>
</svg>
