<svg xmlns="http://www.w3.org/2000/svg" xmlns:xlink="http://www.w3.org/1999/xlink" width="200" height="200" viewBox="0 0 200 200">
  <defs>
    <clipPath id="clip-path">
      <circle id="椭圆_3" data-name="椭圆 3" cx="100" cy="100" r="100" transform="translate(1065 521)" fill="#fff" stroke="#707070" stroke-width="1"/>
    </clipPath>
  </defs>
  <g id="蒙版组_2" data-name="蒙版组 2" transform="translate(-1065 -521)" clip-path="url(#clip-path)">
    <g id="图层_2" data-name="图层 2" transform="translate(1065 521)">
      <g id="图层_1" data-name="图层 1">
        <rect id="矩形_2" data-name="矩形 2" width="200" height="68" transform="translate(0 66)" fill="#fff"/>
        <rect id="矩形_3" data-name="矩形 3" width="200" height="66" fill="#ed5565"/>
        <rect id="矩形_4" data-name="矩形 4" width="200" height="66" transform="translate(0 134)" fill="#4758a9"/>
        <path id="路径_1" data-name="路径 1" d="M130.34,66,137,49.34l-4.49-9.25-8.96,4.21-6.73-6.73-8.41,5.04L100,35.89l-8.41,6.72-8.41-5.04L76.45,44.3l-8.97-4.21L63,49.34,69.66,66Z" fill="#fff"/>
        <path id="路径_2" data-name="路径 2" d="M70,66h60.34v52.9a28,28,0,0,1-28,28H98a28,28,0,0,1-28-28Z" fill="#ed5565"/>
      </g>
    </g>
  </g>
</svg>
