<svg xmlns="http://www.w3.org/2000/svg" xmlns:xlink="http://www.w3.org/1999/xlink" width="100" height="100" viewBox="0 0 100 100">
  <defs>
    <clipPath id="clip-path">
      <circle id="椭圆_35" data-name="椭圆 35" cx="50" cy="50" r="50" transform="translate(2384 5123)" fill="#fff" stroke="#707070" stroke-width="1"/>
    </clipPath>
  </defs>
  <g id="蒙版组_5" data-name="蒙版组 5" transform="translate(-2384 -5123)" clip-path="url(#clip-path)">
    <g id="country-vietnam" transform="translate(2384 5123)">
      <rect id="矩形_102" data-name="矩形 102" width="100" height="100" fill="#ed5565"/>
      <path id="路径_167" data-name="路径 167" d="M68.781,39.066l6.432,19.456a2.031,2.031,0,0,0,1.936,1.38H97.959a2,2,0,0,1,2.036,1.971,2.271,2.271,0,0,1-.075.575,2.036,2.036,0,0,1-.815,1.115L82.325,75.512a2,2,0,0,0-.74,2.256l6.432,19.446a2.026,2.026,0,0,1-3.131,2.236L68.036,87.381a2.061,2.061,0,0,0-2.381,0L48.805,99.414a2.026,2.026,0,0,1-3.136-2.236L52.1,77.768a2,2,0,0,0-.75-2.256l-16.83-12a2,2,0,0,1,1.19-3.626H56.562A2.041,2.041,0,0,0,58.5,58.5L64.91,39.046a2.041,2.041,0,0,1,3.871,0Z" transform="translate(-16.836 -18.821)" fill="#ffe35a"/>
    </g>
  </g>
</svg>
