<svg xmlns="http://www.w3.org/2000/svg" xmlns:xlink="http://www.w3.org/1999/xlink" width="100" height="100" viewBox="0 0 100 100">
  <defs>
    <clipPath id="clip-path">
      <circle id="椭圆_34" data-name="椭圆 34" cx="50" cy="50" r="50" transform="translate(2280 5070)" fill="#fff" stroke="#707070" stroke-width="1"/>
    </clipPath>
  </defs>
  <g id="蒙版组_6" data-name="蒙版组 6" transform="translate(-2280 -5070)" clip-path="url(#clip-path)">
    <g id="country-china" transform="translate(2280 5070)">
      <rect id="矩形_100" data-name="矩形 100" width="100" height="100" fill="#ed5565"/>
      <path id="路径_164" data-name="路径 164" d="M73.122,59.477c-.6.422-.949.186-.778-.537l.632-2.69a2.409,2.409,0,0,0-.693-2.193l-1.962-1.7c-.557-.5-.417-.9.321-.923l2.745-.075a1.962,1.962,0,0,0,1.726-1.31l.853-3.011c.206-.713.6-.723.833,0l1.039,2.9a2.068,2.068,0,0,0,1.792,1.335h2.805c.733,0,.883.407.326.9L80.63,54.042a2.309,2.309,0,0,0-.637,2.178l.688,2.389c.2.708-.146.969-.773.6l-2.273-1.415a2.208,2.208,0,0,0-2.238.08Zm0,39.432c-.6.422-.949.186-.778-.537l.647-2.69a2.434,2.434,0,0,0-.693-2.193l-1.967-1.7c-.557-.5-.412-.9.321-.923l2.75-.075a1.962,1.962,0,0,0,1.711-1.31l.853-2.986c.206-.713.6-.723.833,0l1.039,2.9a2.068,2.068,0,0,0,1.792,1.285h2.805c.733,0,.883.407.326.9L80.63,93.449a2.309,2.309,0,0,0-.637,2.178l.683,2.389c.2.718-.141,1-.768.6l-2.273-1.405a2.2,2.2,0,0,0-2.238.07ZM88.088,87.557c-.6.422-.949.186-.778-.537l.647-2.69a2.464,2.464,0,0,0-.688-2.2l-1.967-1.7c-.557-.5-.407-.9.331-.918l2.74-.08a1.962,1.962,0,0,0,1.716-1.31l.858-3.011c.211-.713.6-.723.838,0l1.039,2.9a2.068,2.068,0,0,0,1.792,1.28h2.8c.738,0,.888.407.331.9l-2.133,1.877a2.309,2.309,0,0,0-.642,2.178l.683,2.394c.206.713-.141,1-.778.6l-2.263-1.405a2.188,2.188,0,0,0-2.233.07Zm0-14.936c-.6.422-.949.186-.778-.537l.647-2.69A2.434,2.434,0,0,0,87.27,67.2L85.3,65.5c-.557-.5-.412-.9.321-.923l2.75-.075a1.967,1.967,0,0,0,1.716-1.31l.858-3.011c.211-.713.6-.723.838,0l1.039,2.9a2.068,2.068,0,0,0,1.792,1.285h2.8c.738,0,.888.407.331.9l-2.133,1.877a2.309,2.309,0,0,0-.647,2.2l.683,2.389c.206.718-.136,1-.763.6l-2.279-1.4a2.173,2.173,0,0,0-2.233.07ZM51.351,56.561,55.06,67.793a1.2,1.2,0,0,0,1.149.8h11.95a1.149,1.149,0,0,1,.693,2.088L59.2,77.565a1.149,1.149,0,0,0-.432,1.3l3.674,11.217a1.164,1.164,0,0,1-1.8,1.29L50.92,84.415a1.184,1.184,0,0,0-1.38,0l-9.706,6.936a1.2,1.2,0,0,1-1.8-1.29L41.745,78.87a1.159,1.159,0,0,0-.432-1.3L31.6,70.659a1.154,1.154,0,0,1,.713-2.088H44.29a1.189,1.189,0,0,0,1.114-.8l3.724-11.232a1.194,1.194,0,0,1,2.233,0Z" transform="translate(-15.502 -23.162)" fill="#ffe35a"/>
    </g>
  </g>
</svg>
