<svg xmlns="http://www.w3.org/2000/svg" width="79.196" height="79.195" viewBox="0 0 79.196 79.195">
  <g id="组_26" data-name="组 26" transform="translate(-448.402 -4301.805)">
    <path id="联合_5" data-name="联合 5" d="M0,28A28,28,0,0,1,28,0H56V28A28,28,0,0,1,0,28Z" transform="translate(527.598 4341.402) rotate(135)" fill="#2464f6"/>
    <g id="组_24" data-name="组 24" transform="translate(-3005.62 3961.196)">
      <path id="路径_12" data-name="路径 12" d="M3664.321,550.428v-2.313l-14.647,8.159v14.647l14.647-8.159v-2.313l-11.178,6.226V556.654Z" transform="translate(-156.479 -172.117)" fill="#fff"/>
      <path id="路径_13" data-name="路径 13" d="M3488.671,552.385l-4.535,6.025-4.534-11.089-2.982-1.665V560.3l3.083,1.722V553.2l2.942,7.194,2.981,1.665,2.942-3.909v8.828l3.084,1.722V554.05Z" transform="translate(0 -169.893)" fill="#fff"/>
      <path id="路径_14" data-name="路径 14" d="M3499.628,440.209l-12.24,10.545,10.927-11.274-6.084-3.38-15.611,8.672,15.611,8.672,15.61-8.672Z" transform="translate(0 -70.829)" fill="#fff"/>
      <path id="路径_15" data-name="路径 15" d="M3812.287,385.366l2.14,1.9,2.738-.819-1.9,2.14.819,2.738-2.14-1.9-2.738.819,1.9-2.14Z" transform="translate(-302.545 -24.955)" fill="#fff"/>
      <path id="路径_16" data-name="路径 16" d="M3792.3,452.7l1.3,1.152,1.664-.5-1.151,1.3.5,1.664-1.3-1.152-1.664.5,1.151-1.3Z" transform="translate(-284.856 -85.844)" fill="#fff"/>
      <path id="路径_17" data-name="路径 17" d="M3718.466,386.5l1.3,1.152,1.664-.5-1.151,1.3.5,1.664-1.3-1.151-1.664.5,1.152-1.3Z" transform="translate(-218.092 -25.98)" fill="#fff"/>
      <path id="路径_18" data-name="路径 18" d="M3768.59,357.768l1.3,1.152,1.664-.5-1.151,1.3.5,1.664-1.3-1.152-1.664.5,1.151-1.3Z" transform="translate(-263.415 0)" fill="#fff"/>
      <path id="路径_19" data-name="路径 19" d="M3573.086,430.039l-.78-.868a.408.408,0,0,1,.036-.581l21.249-18.306a.407.407,0,0,1,.569.038h0a.408.408,0,0,1-.023.57l-20.47,19.174A.407.407,0,0,1,3573.086,430.039Z" transform="translate(-86.427 -47.397)" fill="#fff"/>
    </g>
  </g>
</svg>
